<svg id="Layer_1" data-name="Layer 1" xmlns="http://www.w3.org/2000/svg" viewBox="0 0 800 800"><defs><style>.cls-1{fill:none;stroke:#f3f3f3;stroke-miterlimit:10;stroke-width:21px;}</style></defs><path class="cls-1" d="M464.88,230.36c-1.91,45.26-21.45,90.84-68.23,121.75-43.55,28.78-99.77,25.46-141-8C221,316,203.28,278.87,199.56,234.83c-3.65-43.15,7.29-82.21,34.54-116.06,55.23-68.59,152.45-64.3,202.23,8.71C455.57,155.69,464.93,187,464.88,230.36Z"/><path class="cls-1" d="M243.83,590.13q-66.09,0-132.2,0c-21.21,0-35.26-13.78-35.59-34.9-.21-13.74-.32-27.49,0-41.22.51-19.54,9.13-34.65,26.46-44,49.14-26.63,98.42-53,147.59-79.6a10.13,10.13,0,0,1,10.62,0c47.06,24.83,94.29,24.83,141.49.46,4.24-2.19,7.6-2.4,11.86-.07q38.36,21,77,41.43c4.42,2.34,5.89,5.52,5.8,10.27-.3,16.56-.7,33.12-.38,49.66.12,5.89-1.78,7.3-7.22,7.23q-28.42-.35-56.86,0c-23,.25-41.15,14.16-43.91,34.59-1.32,9.78-.52,19.86-.62,29.8-.06,6.16-.28,12.34.08,18.48s-2.28,8.12-8.36,8.1C334.33,590.05,289.08,590.14,243.83,590.13Z"/><path class="cls-1" d="M540,674.92V631.56c0-11,0-11-10.74-11.06q-44.42,0-88.84,0c-9.73,0-9.95-.28-9.95-9.92q0-26.65,0-53.3c0-10.46.49-11,10.6-11q44.42,0,88.84,0c10.08,0,10.08,0,10.07-10.38q0-44.77,0-89.55c0-9.61.31-9.89,10.07-9.9q28.07,0,56.14,0c8.56,0,9.26.63,9.28,9.37.06,30.08,0,60.17.06,90.25,0,10.09.25,10.23,10.46,10.24,29.62,0,59.23.18,88.84-.12,7.05-.06,9.52,2,9.34,9.33-.47,18.94-.35,37.91,0,56.85.09,6.23-2.09,8.26-8.25,8.21q-42.65-.35-85.28-.05c-16.83.09-14.94-2.23-15.05,15.34-.17,28,0,55.91-.06,83.86,0,10.06-.26,10.21-10.49,10.23-19,0-37.91-.19-56.85.11-6.26.1-8.33-2.13-8.21-8.26C540.2,706.19,540,690.55,540,674.92Z"/></svg>